<svg width="600" height="600" viewBox="0 0 600 600" fill="none" xmlns="http://www.w3.org/2000/svg">
    <path d="M262.922 162.69C264.175 162.454 265.346 161.899 266.323 161.079C267.3 160.26 268.051 159.203 268.502 158.01C272.192 147.84 252.182 143.61 252.632 155.01C252.678 156.24 253 157.445 253.572 158.535C254.145 159.625 254.954 160.573 255.941 161.309C256.928 162.046 258.067 162.552 259.275 162.791C260.483 163.03 261.729 162.995 262.922 162.69ZM302.612 154.05C298.112 149.73 288.722 151.5 288.872 158.34C288.817 160.314 289.48 162.241 290.737 163.764C291.995 165.287 293.762 166.301 295.712 166.62C301.682 167.46 307.262 158.49 302.612 154.05ZM333.002 151.89C332.205 151.001 331.192 150.334 330.061 149.953C328.93 149.573 327.72 149.492 326.549 149.719C325.377 149.946 324.284 150.473 323.377 151.248C322.47 152.024 321.78 153.021 321.374 154.143C320.967 155.265 320.859 156.473 321.059 157.65C321.259 158.826 321.761 159.93 322.515 160.855C323.269 161.78 324.251 162.493 325.363 162.925C326.475 163.357 327.681 163.493 328.862 163.32C335.372 162.99 337.112 156.66 333.002 151.89ZM310.412 198.87C308.654 197.844 306.567 197.543 304.592 198.03C297.102 199.537 289.908 202.252 283.292 206.07C282.902 206.31 283.742 207 283.982 206.91C288.422 205.47 291.632 209.61 292.652 213.42C293.618 217.702 293.033 222.188 291.002 226.08C289.289 229.326 288.49 232.976 288.692 236.64C289.065 239.871 290.665 242.835 293.162 244.92C296.432 247.53 304.862 247.92 304.952 247.92C312.442 242.785 319.264 236.739 325.262 229.92C325.562 229.53 324.722 229.14 324.632 229.14C318.842 229.44 313.052 224.52 312.632 216.18C312.602 210.6 315.902 202.71 310.412 198.87V198.87ZM314.102 225C315.12 226.693 316.578 228.079 318.322 229.009C320.065 229.939 322.028 230.378 324.002 230.28C321.002 234.72 306.602 246 304.832 247.29C304.832 247.29 296.731 246.3 293.641 243.78C292.32 242.576 291.283 241.092 290.609 239.436C289.934 237.781 289.638 235.995 289.742 234.21C290.162 226.98 297.271 221.4 292.891 211.35C292.306 209.694 291.194 208.275 289.726 207.311C288.257 206.347 286.514 205.89 284.762 206.01C290.718 203.027 296.986 200.713 303.452 199.11C304.597 198.709 305.821 198.59 307.022 198.762C308.223 198.935 309.365 199.393 310.352 200.1C316.172 205.59 308.162 215.16 314.102 225Z"
          fill="black"/>
    <path d="M303.361 212.04V211.59C302.198 211.532 301.032 211.663 299.911 211.98C299.911 211.68 299.221 207.84 299.011 207.06C301.847 207.894 304.842 208.028 307.741 207.45C308.041 207.45 307.981 206.85 307.741 206.91C304.656 207.435 301.486 207.125 298.561 206.01C298.261 205.83 297.871 206.22 298.021 206.52C298.321 207.54 299.011 211.89 299.161 212.28C298.263 212.559 297.414 212.974 296.641 213.51C296.61 213.564 296.593 213.625 296.593 213.687C296.592 213.749 296.608 213.811 296.638 213.865C296.668 213.919 296.712 213.965 296.765 213.997C296.818 214.03 296.879 214.048 296.941 214.05C299.118 213.505 301.262 212.834 303.361 212.04V212.04ZM302.461 224.46C307.441 224.22 307.051 222.09 306.811 220.56C306.421 217.98 302.281 217.95 299.851 219.03C297.421 220.11 296.851 222.03 297.691 223.23C298.531 224.43 301.561 224.46 302.461 224.46V224.46ZM298.531 221.46C299.521 219.54 304.711 218.85 305.821 220.41C306.931 221.97 305.821 223.41 302.821 223.62C301.578 223.682 300.333 223.551 299.131 223.23C298.955 223.155 298.797 223.043 298.669 222.901C298.54 222.759 298.444 222.591 298.387 222.409C298.33 222.226 298.313 222.033 298.338 221.844C298.363 221.654 298.429 221.472 298.531 221.31V221.46ZM309.511 230.37H301.591C300.241 230.37 301.591 236.37 301.771 236.58C300.457 236.608 299.145 236.708 297.841 236.88C297.391 236.88 297.541 237.57 297.841 237.57C298.141 237.57 305.341 237.18 306.841 236.97C307.231 236.97 307.051 236.34 306.841 236.34H302.701C302.701 235.95 301.711 231.21 301.801 231.12C301.891 231.03 307.321 231.12 309.541 230.82C309.571 230.79 309.595 230.753 309.61 230.714C309.625 230.674 309.631 230.631 309.628 230.588C309.625 230.546 309.613 230.504 309.593 230.467C309.573 230.429 309.545 230.396 309.511 230.37V230.37ZM366.511 451.98C357.301 453.66 354.871 452.37 334.471 460.26C334.111 460.41 334.471 460.95 334.471 460.95C337.525 462.311 340.26 464.295 342.502 466.775C344.744 469.255 346.444 472.175 347.491 475.35C350.352 481.841 350.892 489.118 349.021 495.96C347.924 499.301 346.005 502.313 343.441 504.72C343.369 504.791 343.323 504.884 343.311 504.984C343.298 505.084 343.319 505.185 343.371 505.272C343.423 505.358 343.503 505.425 343.597 505.461C343.691 505.497 343.795 505.5 343.891 505.47C366.181 503.94 371.251 502.47 372.181 501.87C394.711 484.02 373.861 450.66 366.511 451.98V451.98ZM378.511 492.15C376.893 495.515 374.595 498.508 371.761 500.94C370.171 500.94 366.211 502.53 358.201 503.55C347.101 504.99 348.211 504.33 344.791 504.87C357.061 494.79 350.551 466.41 335.461 460.65C345.449 456.808 355.881 454.238 366.511 453C369.485 454.764 372.077 457.102 374.137 459.878C376.198 462.654 377.684 465.813 378.511 469.17C381.334 476.568 381.345 484.745 378.541 492.15H378.511Z"
          fill="black"/>
    <path d="M359.55 468.84C359.85 468.84 359.91 468.3 359.55 468.24C358.401 467.943 357.225 467.762 356.04 467.7C355.35 465.33 354.51 462.96 353.73 460.56C358.058 461.484 362.515 461.646 366.9 461.04C366.974 461.018 367.039 460.972 367.085 460.91C367.132 460.848 367.157 460.773 367.157 460.695C367.157 460.617 367.132 460.542 367.085 460.48C367.039 460.418 366.974 460.372 366.9 460.35C362.332 460.641 357.747 460.358 353.25 459.51C352.95 459.51 352.56 459.72 352.71 460.02C353.55 462.57 354.24 465.09 355.17 467.55C353.774 467.4 352.366 467.4 350.97 467.55C350.892 467.581 350.825 467.635 350.778 467.705C350.731 467.774 350.706 467.856 350.706 467.94C350.706 468.024 350.731 468.106 350.778 468.176C350.825 468.245 350.892 468.299 350.97 468.33C353.816 468.678 356.682 468.848 359.55 468.84V468.84ZM356.16 479.34C357.571 480.402 359.2 481.14 360.93 481.5C368.88 482.79 369.93 480.12 369.66 478.05C369.21 475.44 366.21 474.12 363.99 473.37C361.77 472.62 358.32 471.06 355.86 472.98C355.335 473.342 354.912 473.831 354.629 474.402C354.346 474.973 354.213 475.607 354.243 476.243C354.273 476.88 354.465 477.498 354.8 478.04C355.136 478.582 355.603 479.029 356.16 479.34ZM355.77 474.51C356.156 474.029 356.651 473.648 357.215 473.397C357.779 473.147 358.394 473.035 359.01 473.07C360.142 473.201 361.252 473.483 362.31 473.91C364.476 474.316 366.472 475.36 368.04 476.91C369.51 478.68 368.52 481.65 362.22 480.75C360.936 480.522 359.693 480.108 358.53 479.52C356.7 478.65 354 476.82 355.77 474.51V474.51ZM362.37 486C362.311 486 362.252 486.012 362.197 486.034C362.143 486.057 362.093 486.09 362.051 486.132C362.01 486.174 361.977 486.223 361.954 486.278C361.931 486.332 361.92 486.391 361.92 486.45C361.92 487.77 361.62 493.35 361.62 493.89C359.617 493.757 357.605 493.837 355.62 494.13C355.538 494.153 355.466 494.202 355.415 494.27C355.364 494.338 355.337 494.42 355.337 494.505C355.337 494.59 355.364 494.672 355.415 494.74C355.466 494.808 355.538 494.857 355.62 494.88C356.64 494.88 367.2 495.72 368.28 495.87C368.67 495.87 368.97 495.42 368.58 495.27C366.585 494.53 364.493 494.085 362.37 493.95C362.711 491.647 362.842 489.317 362.76 486.99C364.38 487.14 371.76 489.06 372.66 489.15C372.96 489.15 373.02 488.76 372.66 488.52C369.306 487.394 365.864 486.551 362.37 486V486ZM204.75 507.54C204.78 505.604 205.31 503.709 206.287 502.038C207.265 500.366 208.657 498.976 210.33 498C210.81 498 211.17 497.31 210.63 497.1C201.75 492.978 193.722 487.228 186.96 480.15C185.026 479.927 183.068 480.189 181.261 480.912C179.455 481.635 177.856 482.796 176.61 484.29C175.24 485.936 174.259 487.87 173.74 489.948C173.22 492.025 173.176 494.193 173.61 496.29C174.15 501.06 176.61 505.02 178.05 509.55C183.78 529.47 174.66 534.99 171.84 534.45C171.45 534.45 171.6 535.53 171.6 535.53C182.596 539.64 193.971 542.654 205.56 544.53C206.01 544.53 217.56 538.02 213.99 526.14C211.74 518.79 204.6 514.29 204.75 507.54V507.54ZM213 533.61C211.906 537.649 209.294 541.11 205.71 543.27C199.799 542.601 193.944 541.508 188.19 540C183.261 538.791 178.404 537.309 173.64 535.56C177.96 534.81 183.33 526.56 181.05 516.57C180.648 514.239 180.036 511.95 179.22 509.73C176.43 503.28 172.65 496.14 175.23 488.73C176.073 486.304 177.658 484.205 179.76 482.73C181.887 481.469 184.34 480.864 186.81 480.99C193.172 488.014 200.859 493.713 209.43 497.76C207.04 499.301 205.275 501.64 204.45 504.36C201 516 216.24 520.29 213 533.61Z"
          fill="black"/>
    <path d="M192.241 506.25C192.304 506.274 192.372 506.276 192.436 506.256C192.5 506.235 192.556 506.195 192.594 506.139C192.632 506.084 192.65 506.018 192.646 505.951C192.642 505.884 192.615 505.82 192.571 505.77C191.791 504.93 188.791 502.77 188.281 502.32C188.491 501.72 190.801 496.32 191.281 495.12C193.741 497.19 196.261 499.2 198.811 501.12C199.171 501.42 199.861 500.88 199.411 500.52L191.521 493.83C191.221 493.62 190.831 493.62 190.681 493.83C189.39 496.306 188.258 498.861 187.291 501.48C185.37 499.924 183.367 498.472 181.291 497.13C180.811 496.89 180.601 497.58 180.811 497.88C181.021 498.18 191.191 505.71 192.241 506.25V506.25ZM189.001 517.5C191.479 519.75 194.658 521.075 198.001 521.25C203.341 521.25 203.371 515.04 195.241 510.99C194.099 510.176 192.795 509.618 191.418 509.354C190.041 509.09 188.623 509.126 187.261 509.46C185.401 510.15 184.741 513.57 189.001 517.5V517.5ZM186.931 510.84C187.771 509.25 193.111 510.24 196.741 513.06C198.271 514.29 200.251 515.67 200.551 517.8C200.941 520.8 198.271 520.8 195.511 520.05C192.683 519.336 190.14 517.777 188.221 515.58C187.261 514.38 186.001 512.52 186.901 510.84H186.931ZM195.841 525H195.151C193.955 527.623 192.952 530.331 192.151 533.1C190.369 531.794 188.494 530.621 186.541 529.59C186.464 529.566 186.381 529.569 186.305 529.597C186.23 529.626 186.166 529.679 186.125 529.748C186.083 529.818 186.066 529.899 186.076 529.979C186.087 530.059 186.123 530.133 186.181 530.19C186.871 530.88 195.661 537.63 196.141 537.78C196.194 537.794 196.249 537.793 196.302 537.778C196.354 537.763 196.401 537.734 196.438 537.694C196.475 537.654 196.501 537.604 196.512 537.551C196.523 537.497 196.519 537.442 196.501 537.39C195.366 536.03 194.111 534.775 192.751 533.64C193.291 532.35 195.061 527.13 195.601 525.9C198.601 528.66 201.601 531.51 204.601 534.18C204.664 534.216 204.736 534.23 204.808 534.22C204.88 534.211 204.946 534.178 204.997 534.127C205.048 534.075 205.081 534.009 205.091 533.937C205.101 533.866 205.086 533.793 205.051 533.73C202.141 531 198.991 528 195.841 525V525ZM337.471 310.44C337.771 310.68 338.071 310.14 337.771 309.9C337.471 309.66 337.561 309 337.771 308.67C338.731 308.01 340.261 308.94 341.851 309.21C342.573 309.425 343.318 309.556 344.071 309.6C344.146 309.619 344.224 309.62 344.3 309.604C344.376 309.588 344.447 309.554 344.508 309.507C344.569 309.459 344.618 309.398 344.652 309.328C344.686 309.259 344.704 309.182 344.704 309.105C344.704 309.028 344.686 308.951 344.652 308.882C344.618 308.812 344.569 308.751 344.508 308.703C344.447 308.656 344.376 308.622 344.3 308.606C344.224 308.59 344.146 308.591 344.071 308.61C341.761 308.61 340.141 307.56 338.701 307.68C337.261 307.8 336.241 309.75 337.471 310.44V310.44ZM343.831 314.19C344.644 314.047 345.438 313.816 346.201 313.5C346.441 313.29 346.201 312.96 345.991 312.81C345.155 312.874 344.329 313.035 343.531 313.29C343.462 313.302 343.398 313.328 343.34 313.367C343.283 313.406 343.235 313.457 343.199 313.516C343.164 313.576 343.141 313.642 343.134 313.711C343.126 313.78 343.134 313.849 343.156 313.915C343.178 313.981 343.213 314.041 343.261 314.091C343.308 314.142 343.366 314.182 343.43 314.208C343.494 314.234 343.563 314.246 343.632 314.243C343.701 314.24 343.769 314.222 343.831 314.19V314.19ZM348.001 312.3C347.551 312.3 348.001 311.61 348.391 311.76C348.73 311.911 349.019 312.157 349.222 312.468C349.424 312.78 349.532 313.143 349.532 313.515C349.532 313.887 349.424 314.25 349.222 314.562C349.019 314.873 348.73 315.119 348.391 315.27C348.091 315.27 347.491 314.82 347.941 314.67C349.081 314.28 349.141 312.45 348.001 312.3V312.3ZM346.651 309C346.652 309.091 346.683 309.18 346.739 309.252C346.795 309.324 346.873 309.376 346.962 309.399C347.05 309.423 347.143 309.417 347.228 309.383C347.313 309.349 347.384 309.288 347.431 309.21C347.577 308.985 347.67 308.73 347.702 308.464C347.734 308.197 347.703 307.927 347.613 307.674C347.523 307.422 347.376 307.193 347.183 307.007C346.99 306.82 346.756 306.681 346.501 306.6C346.171 306.6 345.871 307.17 346.201 307.38C347.521 307.83 346.651 308.67 346.651 309V309ZM333.721 313.89C333.841 313.89 333.96 313.862 334.067 313.808C334.175 313.755 334.269 313.677 334.341 313.581C334.414 313.485 334.463 313.374 334.486 313.256C334.508 313.138 334.503 313.016 334.471 312.9C334.471 312.9 334.021 311.97 331.471 311.91C331.141 311.91 330.841 312.48 330.931 312.81C331.021 313.14 330.931 313.29 331.171 313.29C332.063 313.213 332.956 313.423 333.721 313.89V313.89Z"
          fill="black"/>
    <path d="M353.341 419.34C353.551 419.49 356.161 417.27 356.341 417.21C358.239 420.285 360.419 423.177 362.851 425.85C363.185 426.255 363.628 426.557 364.127 426.721C364.626 426.886 365.161 426.906 365.671 426.78C366.421 426.6 365.971 425.64 365.671 424.62C365.966 424.921 366.352 425.116 366.77 425.176C367.187 425.236 367.613 425.156 367.981 424.95C369.301 423.84 367.531 422.43 366.841 421.26C366.841 421.26 369.061 422.64 369.841 422.25C372.151 421.14 367.471 417.9 365.701 416.25C366.437 416.355 367.184 416.355 367.921 416.25C368.911 416.1 368.761 415.08 368.311 414.39C367.04 413.199 365.372 412.525 363.631 412.5C363.631 412.32 363.931 412.02 363.631 411.81C348.931 389.19 338.731 342.81 333.151 337.38C333.819 335.422 333.745 333.286 332.941 331.38C333.421 331.38 333.811 331.17 334.261 331.11C333.871 332.64 337.441 334.74 338.431 335.37C339.421 336 341.431 336.27 341.881 334.98C342.037 335.375 342.282 335.729 342.597 336.015C342.911 336.301 343.287 336.511 343.695 336.63C344.103 336.748 344.533 336.772 344.951 336.699C345.37 336.627 345.767 336.459 346.111 336.21C346.825 337.003 347.706 337.628 348.691 338.04C348.937 338.119 349.196 338.148 349.454 338.125C349.711 338.103 349.962 338.03 350.191 337.91C350.419 337.79 350.622 337.625 350.787 337.426C350.952 337.227 351.075 336.997 351.151 336.75C351.544 337.13 352.054 337.367 352.598 337.421C353.143 337.476 353.69 337.345 354.151 337.05C354.981 336.333 355.611 335.413 355.981 334.38C356.582 334.908 357.333 335.235 358.129 335.316C358.925 335.397 359.726 335.227 360.421 334.83C361.101 334.376 361.597 333.696 361.823 332.911C362.048 332.125 361.987 331.285 361.651 330.54C364.171 331.05 365.131 329.22 364.651 328.08C364.951 328.62 365.791 328.53 366.271 328.08C366.703 327.125 366.893 326.078 366.825 325.031C366.757 323.985 366.433 322.971 365.881 322.08C366.241 322.137 366.611 322.081 366.938 321.92C367.266 321.759 367.536 321.5 367.711 321.18C367.802 320.822 367.778 320.444 367.644 320.1C367.509 319.755 367.27 319.462 366.961 319.26C367.239 318.993 367.454 318.666 367.588 318.304C367.722 317.942 367.772 317.554 367.735 317.17C367.697 316.786 367.573 316.415 367.371 316.086C367.17 315.757 366.896 315.478 366.571 315.27C367.028 315.125 367.418 314.822 367.671 314.415C367.924 314.008 368.023 313.524 367.951 313.05C367.918 311.855 367.53 310.697 366.835 309.724C366.14 308.751 365.171 308.008 364.051 307.59C364.496 306.814 364.67 305.912 364.545 305.027C364.42 304.141 364.003 303.322 363.361 302.7C361.782 301.789 359.917 301.51 358.141 301.92C357.841 300.63 357.901 297.42 354.541 297.48C353.343 297.648 352.2 298.09 351.201 298.771C350.202 299.453 349.374 300.356 348.781 301.41C348.409 302.257 348.176 303.159 348.091 304.08C342.168 303.771 336.259 304.903 330.871 307.38C324.121 310.38 323.071 313.74 324.871 320.79C323.507 321.08 322.275 321.807 321.361 322.86C320.875 322.015 320.146 321.336 319.268 320.913C318.39 320.49 317.404 320.342 316.441 320.49C314.521 318.87 287.191 293.13 293.161 258.33C293.161 257.79 285.271 251.58 282.571 248.13C279.961 251.82 273.751 260.31 273.571 261.15C272.341 280.26 287.431 306.84 292.561 311.73C291.181 311.52 272.191 310.74 251.881 289.14H251.101C251.101 287.28 251.881 280.86 250.201 280.77C249.421 280.77 248.041 282.48 247.981 282.78C247.441 281.79 245.431 276.78 243.991 276.78C242.551 276.78 242.671 278.73 242.911 280.23C242.911 280.02 240.781 278.25 240.241 279.33C239.701 280.41 240.691 282.48 240.691 282.54C240.554 282.444 240.392 282.393 240.226 282.393C240.059 282.393 239.897 282.444 239.761 282.54C238.861 283.23 239.761 284.85 239.941 285.54C240.95 288.163 242.675 290.45 244.921 292.14C244.921 292.14 244.441 292.89 244.531 293.19C249.421 321.93 268.531 330.66 271.531 332.37C260.341 338.37 244.531 356.04 242.341 358.41C240.661 360.33 238.501 362.79 239.821 365.4C227.473 377.788 217.704 392.502 211.081 408.69C207.39 420.358 207.016 432.822 210.001 444.69C213.001 458.49 225.001 484.17 225.001 484.32C225.354 484.586 225.788 484.723 226.231 484.71C226.231 485.1 227.011 489.99 227.071 490.29C225.181 492.6 224.071 498.42 224.701 499.02C226.381 500.73 231.211 494.82 232.141 493.83C233.021 493.251 233.652 492.362 233.908 491.339C234.163 490.317 234.025 489.235 233.521 488.31C233.521 487.83 232.291 484.32 232.291 484.02C233.071 483.87 242.101 482.1 246.151 480.72C244.771 472.14 241.951 454.05 241.861 453.72C238.861 445.05 230.611 423.21 249.391 402.72C249.691 402.33 250.291 402.87 250.081 403.26C244.528 410.535 240.822 419.049 239.281 428.07C239.111 439.396 241.298 450.634 245.701 461.07C247.321 464.28 273.301 501.21 273.991 501.15C274.681 501.09 274.891 500.61 275.131 500.46C275.734 501.349 276.427 502.174 277.201 502.92C274.831 505.59 275.221 512.88 275.371 513.09C276.121 514.26 277.651 512.88 278.191 512.34C280.092 509.717 281.749 506.926 283.141 504C283.561 501.9 281.041 499.17 279.601 497.01C284.071 494.01 289.741 490.11 289.411 489.57C279.601 477 274.411 448.59 274.411 443.97C274.411 437.97 288.661 399.84 288.661 399.78C296.119 389.943 305.067 381.329 315.181 374.25C324.991 398.73 349.141 416.55 353.341 419.34V419.34ZM227.491 488.7C227.491 488.55 226.801 484.95 226.741 484.62C227.971 484.62 229.501 484.32 230.881 484.11V486.15C229.519 486.639 228.338 487.527 227.491 488.7V488.7ZM278.491 497.7C278.641 497.94 279.781 500.01 279.871 500.07C278.945 500.712 278.053 501.403 277.201 502.14L275.191 499.86C276.001 499.35 277.231 498.57 278.461 497.73L278.491 497.7ZM362.641 413.4C366.781 414.09 367.471 415.47 367.381 415.47C366.272 415.453 365.167 415.333 364.081 415.11C363.631 414.93 363.331 415.56 363.631 415.86C364.711 416.85 368.911 421.14 369.061 421.29C368.521 421.29 365.281 418.92 364.561 418.92C363.841 418.92 363.781 419.46 364.021 419.76C365.133 421.086 366.137 422.501 367.021 423.99C367.021 424.44 364.171 421.68 363.661 420.99C363.151 420.3 362.431 420.99 362.791 421.68C363.532 422.942 364.203 424.244 364.801 425.58C364.021 425.43 363.421 424.65 362.881 424.14C362.341 423.63 357.211 416.31 357.211 416.31C358.892 415.102 360.635 413.98 362.431 412.95C362.367 412.974 362.315 413.022 362.287 413.084C362.259 413.146 362.257 413.216 362.281 413.28C362.305 413.344 362.353 413.395 362.415 413.423C362.476 413.451 362.547 413.454 362.611 413.43L362.641 413.4ZM322.441 323.1C324.721 322.14 325.981 321.93 325.681 321.33C324.031 314.19 324.541 310.95 332.491 308.16C337.574 306.139 343.063 305.348 348.511 305.85C351.926 308.836 354.239 312.882 355.081 317.34C355.068 318.541 354.754 319.721 354.167 320.769C353.58 321.817 352.739 322.702 351.721 323.34C349.081 325.23 346.441 325.35 345.991 326.64C345.541 327.93 346.741 328.71 346.291 329.64C346.05 330.131 345.68 330.548 345.22 330.844C344.76 331.14 344.228 331.305 343.681 331.32C342.369 331.254 341.133 330.684 340.231 329.73C339.541 328.95 338.941 329.19 338.011 329.4C337.081 329.61 330.511 330.63 328.801 331.32C328.801 331.32 326.521 328.89 318.301 327.72C319.222 325.823 320.656 324.223 322.441 323.1V323.1ZM317.251 328.68C321.087 328.837 324.813 330.007 328.051 332.07C328.132 332.121 328.225 332.147 328.321 332.147C328.416 332.147 328.51 332.121 328.591 332.07C328.591 332.07 330.661 331.53 331.591 331.38C333.121 333.06 332.131 336.66 332.041 336.87C326.368 334.384 320.498 332.377 314.491 330.87C315.631 330.15 316.411 329.37 317.251 328.68V328.68ZM314.251 324.24C313.921 325.02 314.851 325.92 315.391 326.55L312.091 325.62C312.871 325.23 314.251 324.33 314.341 324.24H314.251ZM239.701 283.17C239.701 282.72 240.391 283.68 241.831 284.94C242.281 285.3 242.761 284.7 242.521 284.25C241.455 282.942 240.742 281.382 240.451 279.72C240.451 279.72 240.991 279.72 241.081 279.96C241.939 280.904 242.731 281.906 243.451 282.96C243.478 283.031 243.52 283.095 243.575 283.147C243.63 283.199 243.696 283.238 243.768 283.262C243.84 283.286 243.916 283.293 243.992 283.283C244.067 283.274 244.139 283.247 244.203 283.206C244.266 283.165 244.32 283.111 244.36 283.046C244.4 282.982 244.425 282.909 244.434 282.834C244.442 282.759 244.434 282.683 244.409 282.611C244.384 282.539 244.344 282.474 244.291 282.42C243.624 281.068 243.284 279.578 243.301 278.07C243.511 277.29 244.051 278.07 244.201 278.52C245.281 280.53 246.361 282.42 247.201 284.52C247.441 285.06 248.371 284.52 248.131 284.16C247.801 283.17 249.571 281.16 249.631 282.09V288.9C248.682 288.878 247.741 289.081 246.885 289.493C246.03 289.905 245.285 290.514 244.711 291.27C243.361 289.98 239.071 285 239.701 283.17V283.17ZM244.891 292.98C245.451 291.745 246.462 290.771 247.717 290.258C248.972 289.745 250.376 289.731 251.641 290.22C272.251 313.74 293.641 313.14 294.031 313.2C296.694 315.704 299.809 317.68 303.211 319.02C291.961 319.35 273.631 330.51 272.011 331.59C264.918 327.558 258.807 322.005 254.117 315.329C249.428 308.652 246.277 301.02 244.891 292.98V292.98ZM311.731 365.7C311.731 365.4 311.041 365.46 311.191 365.7C312.031 368.22 313.111 370.68 314.191 373.14C304.128 380.358 295.234 389.08 287.821 399C287.821 397.89 269.161 394.47 240.001 364.59C239.161 361.59 242.281 359.16 243.991 357.33C260.461 339.51 281.671 322.83 305.731 320.01C307.291 320.7 312.721 322.59 313.951 323.01C313.801 323.01 311.641 324.45 310.711 325.14C310.597 325.181 310.501 325.261 310.441 325.365C310.381 325.47 310.359 325.592 310.381 325.711C310.403 325.83 310.466 325.937 310.559 326.014C310.652 326.091 310.77 326.132 310.891 326.13C311.731 326.46 315.091 327.3 315.871 327.45C294.645 333.307 276.15 346.43 263.611 364.53C263.281 364.92 263.971 365.22 264.211 364.92C274.621 351.27 294.931 333.12 315.871 328.53C315.091 329.22 314.251 329.82 313.411 330.51C313.111 330.75 313.411 331.2 313.651 331.29C320.029 332.775 326.219 334.979 332.101 337.86C341.461 356.1 341.821 370.08 353.491 395.49C355.996 401.187 358.862 406.718 362.071 412.05C359.124 413.665 356.417 415.685 354.031 418.05C334.976 405.263 320.231 387.015 311.731 365.7V365.7ZM305.521 43.77C305.441 43.77 305.365 43.8016 305.308 43.8578C305.252 43.9141 305.221 43.9904 305.221 44.07C305.221 44.1495 305.252 44.2258 305.308 44.2821C305.365 44.3384 305.441 44.37 305.521 44.37C310.294 44.6342 314.942 45.995 319.104 48.3467C323.267 50.6984 326.831 53.9776 329.521 57.93C329.585 58.0001 329.673 58.0443 329.767 58.0543C329.862 58.0642 329.957 58.0391 330.035 57.9837C330.112 57.9284 330.167 57.8466 330.188 57.7538C330.209 57.661 330.196 57.5636 330.151 57.48C327.609 53.2348 323.995 49.7332 319.672 47.3267C315.348 44.9202 310.468 43.6936 305.521 43.77V43.77Z"
          fill="black"/>
    <path d="M584.761 480.81C569.521 470.7 541.861 433.98 539.761 429.81L553.561 434.4C553.707 434.43 553.858 434.417 553.997 434.364C554.136 434.311 554.257 434.218 554.345 434.099C554.434 433.979 554.486 433.836 554.496 433.687C554.505 433.539 554.473 433.39 554.401 433.26C546.061 417.63 534.721 373.62 534.241 368.58C534.229 368.411 534.162 368.252 534.048 368.126C533.935 368.001 533.782 367.918 533.616 367.89C533.449 367.862 533.278 367.892 533.13 367.973C532.982 368.055 532.866 368.184 532.801 368.34C526.501 383.34 503.671 418.23 500.761 421.74C500.668 421.837 500.6 421.955 500.564 422.084C500.528 422.214 500.525 422.35 500.555 422.481C500.585 422.612 500.646 422.733 500.735 422.834C500.823 422.935 500.935 423.013 501.061 423.06C506.431 424.5 511.711 426.06 517.081 427.35C512.077 434.537 506.007 440.92 499.081 446.28C493.081 432.72 487.081 419.13 481.081 405.57C485.821 406.5 490.561 407.43 495.241 408.57C495.387 408.6 495.538 408.587 495.677 408.534C495.816 408.481 495.937 408.388 496.025 408.269C496.114 408.149 496.166 408.006 496.176 407.857C496.185 407.709 496.152 407.56 496.081 407.43C489.721 393.84 484.081 379.98 477.841 366.18L489.181 369.18C489.309 369.208 489.442 369.204 489.568 369.167C489.693 369.13 489.808 369.063 489.901 368.97C489.993 368.877 490.061 368.763 490.098 368.637C490.135 368.511 490.139 368.378 490.111 368.25C485.736 352.203 482.656 335.83 480.901 319.29C480.897 319.13 480.842 318.974 480.744 318.848C480.646 318.721 480.509 318.629 480.355 318.585C480.2 318.541 480.036 318.548 479.886 318.605C479.736 318.662 479.608 318.765 479.521 318.9C471.871 329.1 448.411 351.9 445.651 354.09C445.201 354.45 445.501 355.14 445.981 355.32C451.321 357.54 456.691 359.67 462.061 361.89C456.061 371.79 433.411 391.41 430.501 393.09C430.402 393.142 430.316 393.217 430.251 393.308C430.185 393.399 430.142 393.504 430.125 393.615C430.107 393.726 430.116 393.839 430.15 393.946C430.184 394.052 430.242 394.15 430.321 394.23C434.824 397.957 440.364 400.208 446.191 400.68L425.191 418.98C422.649 414.859 420.861 410.318 419.911 405.57L428.431 404.34C429.031 404.34 429.091 403.5 428.731 403.14C421.428 395.472 415.763 386.398 412.081 376.47C417.347 377.609 422.779 377.761 428.101 376.92C428.223 376.883 428.333 376.816 428.422 376.724C428.51 376.632 428.574 376.52 428.607 376.397C428.64 376.274 428.641 376.144 428.611 376.02C428.58 375.897 428.518 375.783 428.431 375.69C417.616 366.124 408.489 354.806 401.431 342.21C407.941 343.35 414.361 344.58 420.901 345.57C421.04 345.603 421.185 345.595 421.319 345.545C421.453 345.496 421.569 345.407 421.653 345.292C421.736 345.176 421.784 345.038 421.789 344.895C421.794 344.752 421.756 344.611 421.681 344.49C413.341 330.57 401.581 290.49 400.831 286.11C400.831 285.66 399.991 285.57 399.841 286.11C394.154 299.109 387.222 311.527 379.141 323.19C349.351 255 323.821 196.26 319.681 186.6C323.371 185.37 329.581 182.79 328.891 174.06C335.266 173.178 341.14 170.114 345.511 165.39C347.281 163.32 356.251 146.91 359.161 140.94C359.161 140.7 406.051 134.94 444.751 120.48C448.651 119.01 453.571 117.72 455.101 113.34C455.698 110.809 455.488 108.155 454.501 105.75C454.321 105.3 447.661 96.33 391.891 79.71C385.441 77.79 355.891 71.43 354.931 71.43C355.285 70.544 355.285 69.556 354.931 68.67C350.101 57.87 337.171 66.84 331.261 69.06C326.881 70.65 298.531 80.64 250.411 67.59C248.281 66.99 246.121 66.15 243.961 65.61C248.521 49.53 262.561 41.25 278.851 38.16C295.141 35.07 314.401 35.16 327.901 44.46C334.726 48.9371 339.553 55.8823 341.371 63.84C341.521 64.77 342.931 64.38 342.751 63.45C340.351 50.67 328.261 38.73 308.581 35.94C293.791 33.9 270.751 35.94 257.311 45.54C250.083 50.0834 244.94 57.296 243.001 65.61C231.211 63.99 230.281 70.89 231.001 71.61C159.841 88.59 137.071 109.59 137.161 109.89C138.713 113.825 141.047 117.404 144.022 120.41C146.998 123.416 150.552 125.787 154.471 127.38C158.611 129.3 179.221 136.38 255.181 143.16C289.526 145.813 324.051 144.989 358.231 140.7C353.251 151.59 345.211 164.7 341.461 168C336.931 172.05 326.191 173.28 325.051 173.58C305.531 176.765 285.6 176.45 266.191 172.65C261.211 171.51 251.641 168.75 247.801 165.39C245.671 163.38 232.111 146.61 228.511 141.63C228.271 141.33 227.731 141.63 227.971 141.93C230.971 146.37 245.971 165 247.801 166.38C250.941 168.49 254.379 170.118 258.001 171.21C258.001 178.5 264.271 184.23 270.421 186.21C266.191 197.64 226.981 299.94 218.461 320.4C209.941 310 201.481 299.53 193.081 288.99C192.721 288.54 192.001 288.99 191.941 289.44C189.751 304.74 178.621 342.72 176.941 346.77C176.914 346.865 176.908 346.966 176.925 347.063C176.942 347.161 176.981 347.254 177.038 347.335C177.096 347.415 177.171 347.482 177.258 347.53C177.345 347.577 177.442 347.605 177.541 347.61C182.044 347.236 186.492 346.361 190.801 345C184.902 356.137 177.558 366.446 168.961 375.66C168.661 376.05 168.811 376.8 169.441 376.74C175.621 376.11 181.921 375.72 188.131 375.21C181.039 383.942 173.307 392.134 165.001 399.72C164.91 399.801 164.848 399.909 164.824 400.027C164.799 400.146 164.812 400.27 164.863 400.38C164.913 400.491 164.997 400.582 165.103 400.641C165.208 400.701 165.33 400.725 165.451 400.71C169.831 400.17 174.271 399.87 178.651 399.42L171.001 417C163.945 412.08 157.239 406.677 150.931 400.83C154.441 400.05 157.981 399.36 161.491 398.61C162.121 398.61 162.181 397.77 161.821 397.29C156.991 391.47 131.821 356.07 130.621 352.71C135.001 352.71 139.351 351.72 143.731 351.48C143.908 351.445 144.067 351.349 144.181 351.21C144.296 351.07 144.359 350.895 144.359 350.715C144.359 350.535 144.296 350.36 144.181 350.22C144.067 350.081 143.908 349.985 143.731 349.95C144.031 349.95 122.341 314.4 119.731 310.71C119.671 310.59 119.579 310.489 119.465 310.418C119.351 310.347 119.22 310.31 119.086 310.31C118.952 310.31 118.82 310.347 118.706 310.418C118.592 310.489 118.5 310.59 118.441 310.71C116.281 322.89 105.721 353.01 104.191 356.31C104.137 356.419 104.11 356.539 104.113 356.661C104.116 356.782 104.148 356.901 104.207 357.008C104.266 357.114 104.35 357.204 104.452 357.271C104.553 357.337 104.67 357.378 104.791 357.39C108.763 357.461 112.706 356.705 116.371 355.17C113.161 368.43 100.981 401.61 99.2707 405.27C99.0607 405.81 99.4507 406.44 100.051 406.26C103.561 405.27 107.191 404.19 110.701 403.26C106.988 417.946 102.329 432.376 96.7507 446.46C96.7507 446.46 81.3607 432.45 76.2007 423.63C82.1499 424.619 88.2073 424.78 94.2007 424.11C94.7407 424.11 95.2207 423.48 94.8907 422.94C86.4307 409.02 68.6107 371.37 66.7807 367.17C66.5407 366.54 65.7907 366.84 65.5507 367.17C62.3407 375.27 39.7207 421.17 36.3607 424.17C36.2648 424.261 36.1982 424.378 36.1695 424.507C36.1408 424.635 36.1514 424.77 36.1998 424.892C36.2483 425.015 36.3323 425.12 36.4412 425.195C36.5501 425.269 36.6788 425.309 36.8107 425.31C44.0107 424.44 51.2107 423.87 58.4107 423.09C50.3107 439.35 19.1107 474.09 15.1207 477.42C14.6707 477.81 15.3607 478.44 15.7507 478.05C30.1507 466.32 57.7507 427.32 60.1207 422.64C60.1695 422.541 60.1938 422.431 60.1914 422.321C60.1891 422.21 60.1603 422.102 60.1073 422.005C60.0544 421.908 59.979 421.825 59.8873 421.763C59.7957 421.702 59.6905 421.663 59.5807 421.65L38.8807 423.72C44.0107 418.74 64.5607 373.29 66.2407 369.15C72.5107 383.64 90.6907 419.19 92.9707 422.73C87.0126 423.266 81.0095 423.004 75.1207 421.95C74.9803 421.916 74.8329 421.923 74.6965 421.971C74.56 422.018 74.4401 422.104 74.3514 422.218C74.2626 422.332 74.2088 422.47 74.1962 422.614C74.1837 422.758 74.213 422.902 74.2807 423.03C79.5381 432.726 86.9227 441.105 95.8807 447.54C96.2107 447.78 97.2007 447.93 97.3507 447.54C102.781 436.5 111.601 406.02 112.351 402.54C112.374 402.422 112.367 402.3 112.331 402.185C112.295 402.071 112.231 401.967 112.144 401.883C112.058 401.8 111.952 401.739 111.836 401.707C111.72 401.675 111.598 401.673 111.481 401.7L101.161 404.7C106.651 392.13 117.151 358.17 118.081 354.27C118.113 354.141 118.108 354.005 118.065 353.879C118.022 353.752 117.944 353.641 117.839 353.559C117.734 353.476 117.608 353.426 117.475 353.414C117.342 353.401 117.209 353.428 117.091 353.49C113.58 355.12 109.771 356.009 105.901 356.1C110.971 345.06 118.921 315.87 119.461 312.9C123.691 319.26 141.001 348.9 141.751 350.04C137.647 350.671 133.51 351.062 129.361 351.21C129.241 351.206 129.122 351.232 129.015 351.286C128.908 351.34 128.816 351.42 128.747 351.518C128.679 351.616 128.636 351.73 128.623 351.849C128.609 351.968 128.626 352.089 128.671 352.2C131.101 358.86 157.231 394.2 159.781 397.2L149.041 399.51C148.909 399.55 148.791 399.624 148.697 399.725C148.604 399.826 148.539 399.949 148.508 400.083C148.478 400.217 148.483 400.357 148.524 400.488C148.565 400.619 148.64 400.737 148.741 400.83C155.733 407.538 163.291 413.631 171.331 419.04C172.171 419.61 172.891 418.29 172.111 417.75C172.111 417.75 177.211 405.06 180.151 398.91C180.196 398.827 180.22 398.734 180.22 398.64C180.22 398.545 180.197 398.452 180.152 398.369C180.108 398.285 180.043 398.214 179.964 398.162C179.885 398.11 179.795 398.078 179.701 398.07L167.281 399.21C175.462 391.606 183.045 383.381 189.961 374.61C190.261 374.22 190.111 373.56 189.511 373.62C183.301 374.22 177.181 374.61 170.971 375.06C179.592 365.72 186.909 355.255 192.721 343.95C192.961 343.5 192.721 342.81 192.031 343.05C187.7 344.593 183.196 345.6 178.621 346.05C184.291 331.89 192.571 294.72 193.021 290.88C201.301 301.14 209.551 311.43 217.771 321.75C216.151 325.62 115.891 561 114.541 564C114.241 564.72 115.381 564.93 115.621 564.33C126.031 538.65 206.281 366.33 271.261 186.33C277.261 188.07 300.451 192 318.631 187.02C403.831 396.36 481.321 559.29 482.521 562.02C482.761 562.47 483.451 562.02 483.211 561.63C476.851 547.98 423.451 425.85 379.171 324.39C387.119 313.067 393.97 301.013 399.631 288.39C402.211 303.87 417.241 340.59 419.251 344.19C412.711 343.02 406.321 341.76 399.781 340.8C399.64 340.766 399.493 340.773 399.356 340.821C399.22 340.868 399.1 340.954 399.011 341.068C398.923 341.182 398.869 341.32 398.856 341.464C398.844 341.608 398.873 341.752 398.941 341.88C405.796 354.745 414.876 366.294 425.761 375.99C420.684 376.623 415.533 376.287 410.581 375C410.455 374.965 410.322 374.963 410.195 374.996C410.068 375.028 409.952 375.093 409.858 375.184C409.764 375.275 409.695 375.388 409.659 375.514C409.623 375.64 409.62 375.773 409.651 375.9C413.206 386.08 418.811 395.423 426.121 403.35C423.541 403.74 420.841 404.04 418.231 404.49C418.046 404.557 417.891 404.687 417.792 404.857C417.694 405.027 417.658 405.226 417.691 405.42C418.702 410.864 420.738 416.066 423.691 420.75C423.766 420.829 423.857 420.892 423.958 420.935C424.058 420.978 424.166 421 424.276 421C424.385 421 424.493 420.978 424.594 420.935C424.694 420.892 424.785 420.829 424.861 420.75C432.721 414.21 440.251 407.34 447.991 400.65C448.084 400.546 448.144 400.418 448.166 400.28C448.187 400.142 448.168 400.002 448.111 399.875C448.054 399.748 447.961 399.64 447.844 399.564C447.726 399.489 447.59 399.449 447.451 399.45C441.708 399.345 436.149 397.411 431.581 393.93C441.541 387.93 461.581 365.04 463.231 362.04C463.285 361.941 463.316 361.832 463.321 361.72C463.327 361.608 463.308 361.496 463.265 361.392C463.222 361.288 463.156 361.196 463.072 361.121C462.988 361.046 462.889 360.991 462.781 360.96L447.001 354.75C456.661 346.86 477.271 323.85 479.041 321.57C480.789 337.131 483.677 352.542 487.681 367.68C483.841 366.69 479.971 365.55 476.101 364.68C475.954 364.658 475.803 364.677 475.666 364.735C475.529 364.793 475.411 364.888 475.324 365.009C475.237 365.13 475.185 365.272 475.174 365.421C475.163 365.569 475.193 365.718 475.261 365.85C481.681 379.47 487.471 393.36 493.501 407.13C488.761 406.23 484.021 405.3 479.341 404.31C479.195 404.28 479.043 404.293 478.904 404.346C478.765 404.399 478.645 404.492 478.556 404.611C478.468 404.731 478.416 404.874 478.406 405.023C478.396 405.171 478.429 405.319 478.501 405.45C485.191 419.64 491.401 433.92 497.491 448.38C497.671 448.74 498.271 448.89 498.481 448.59C506.198 442.81 512.908 435.796 518.341 427.83C518.4 427.728 518.436 427.614 518.445 427.496C518.454 427.379 518.436 427.261 518.392 427.151C518.349 427.041 518.281 426.943 518.195 426.863C518.108 426.783 518.004 426.724 517.891 426.69C512.581 425.22 507.241 423.69 501.931 422.4C511.981 409.83 530.911 375.33 532.351 372.03C534.121 388.83 549.301 428.82 551.431 432.81L537.721 428.22C537.031 427.98 536.581 428.76 536.881 429.36C545.011 445.98 572.281 474.57 583.321 482.16C584.761 482.34 585.391 481.26 584.761 480.81V480.81ZM357.901 81.57C361.561 82.11 393.541 89.43 405.151 94.35C405.384 94.4939 405.558 94.7172 405.641 94.9791C405.723 95.2409 405.708 95.5237 405.599 95.7754C405.489 96.0271 405.293 96.2309 405.045 96.3493C404.797 96.4677 404.515 96.4928 404.251 96.42C401.251 95.28 370.261 85.53 357.511 83.73C357.259 83.6442 357.047 83.4711 356.913 83.2422C356.778 83.0133 356.73 82.7437 356.777 82.4823C356.824 82.221 356.964 81.9852 357.17 81.8178C357.376 81.6504 357.635 81.5625 357.901 81.57ZM232.261 70.44C232.471 69.51 237.001 63.99 249.181 68.58C251.341 69.45 301.981 87 346.441 64.83C347.821 64.14 354.031 66.21 354.031 70.83C353.886 71.8747 353.469 72.8629 352.822 73.695C352.174 74.5272 351.318 75.1739 350.341 75.57C293.701 102.24 234.631 74.13 233.641 73.14C233.101 72.42 232.021 71.43 232.261 70.44V70.44ZM331.951 142.44C286.52 145.264 240.916 142.898 196.021 135.39C190.201 134.43 169.711 130.98 163.021 129.24C149.821 125.85 141.541 117.99 138.661 110.94C141.417 112.72 144.378 114.161 147.481 115.23C159.481 119.67 183.931 126.27 233.911 129.03C298.171 133.53 392.911 131.55 453.451 107.25C455.371 114.09 453.211 116.49 446.401 118.98C409.444 131.761 370.961 139.609 331.951 142.32V142.44Z"
          fill="black"/>
</svg>
